<svg xmlns="http://www.w3.org/2000/svg" xmlns:xlink="http://www.w3.org/1999/xlink" viewBox="-3188 -2482 150 150"><defs><style>.a{fill:rgba(255,255,255,0);stroke:#95989a;}.b{clip-path:url(#a);}.c{fill:#687db7;}.d{fill:#f15c61;}</style><clipPath id="a"><rect class="a" width="150" height="150" transform="translate(629 311)"/></clipPath></defs><g class="b" transform="translate(-3817 -2793)"><g transform="translate(630.939 311)"><path class="c" d="M11.172,111.327,72.883,150l61.711-38.673H11.172Z"/><path class="c" d="M73,0l62.916,108.971H10.07L72.986,0A73.008,73.008,0,0,0,9.473,108.988H136.5A73.008,73.008,0,0,0,73,0Z"/><path class="d" d="M136.44,108.971c-2.475.038-124.052,0-127.168,0-6.644-12.6-7.6-20.427-7.6-20.427l36.523-22.55,24.558,6.14s72.318-35.448,73.285-35.947C147.047,53.308,151.58,83.479,136.44,108.971Z"/></g></g></svg>