<svg xmlns="http://www.w3.org/2000/svg" xmlns:xlink="http://www.w3.org/1999/xlink" viewBox="-3188 -2283 150 150"><defs><style>.a{fill:rgba(255,255,255,0);stroke:#95989a;}.b{clip-path:url(#a);}.c{fill:#687db7;}.d,.f{fill:#fff;}.d{opacity:0.25;}.e{fill:#f15c61;}.f{opacity:0.8;}</style><clipPath id="a"><rect class="a" width="150" height="150" transform="translate(629 311)"/></clipPath></defs><g class="b" transform="translate(-3817 -2594)"><g transform="translate(638.627 311)"><path class="c" d="M97.987,18.773l-.135.076v-.038L65.373.059,32.894,18.811v.038l-.135-.076L.281,37.524v74.93L32.76,131.211l.135-.081v.119L65.373,150l32.479-18.751v-.119l.135.081,32.479-18.757V37.524Z"/><path class="d" d="M130.747,111.915,66.485,75.049,73.2,71.2l-.556-.971L65.363,74.4,61.639,72.27l-.556.971,3.157,1.808L0,111.915l.556.966L65.363,75.7l64.828,37.184Z"/><path class="e" d="M65.373,0,43.606,37.578h43.53Z"/><path class="e" d="M90.735,43.784H40.012L22.043,74.817H108.7Z"/><path class="e" d="M112.3,81.022H18.449L.281,112.395H130.466Z"/><path class="f" d="M130.731,37.983l-.529-.917L65.373,74.46.545,37.066l-.529.917L64.845,75.378,64.71,150h1.058L65.9,75.378Z"/></g></g></svg>