<svg xmlns="http://www.w3.org/2000/svg" xmlns:xlink="http://www.w3.org/1999/xlink" viewBox="-3188 -2681 150 150"><defs><style>.a{fill:rgba(255,255,255,0);stroke:#95989a;}.b{clip-path:url(#a);}.c{fill:#687db7;}.d{fill:#f15c61;}.e,.f{fill:#fff;}.f{stroke:#fff;stroke-miterlimit:10;stroke-width:2.208px;}</style><clipPath id="a"><rect class="a" width="150" height="150" transform="translate(629 311)"/></clipPath></defs><g class="b" transform="translate(-3817 -2992)"><g transform="translate(629.003 311.001)"><path class="c" d="M138.143,111.488l-63.08,36.4-63.212-36.4V38.572L75,2.114l63.146,36.458Z"/><path class="d" d="M2.208,74.97,75,2.109c6.11,6.072,49.479,49.584,72.789,72.977L75.069,147.88Z"/><path class="e" d="M75.014,5.222c8.131,8.086,47.128,47.216,69.72,69.847L75.069,144.762l-69.8-69.8L75.014,5.222m0-3.108h0L2.153,74.975,75.069,147.88l72.784-72.811S75.13,2.114,75,2.114Z"/><path class="d" d="M75,2.208A72.789,72.789,0,1,1,2.208,75,72.789,72.789,0,0,1,75,2.208M75,0a75,75,0,1,0,53.034,21.969A75,75,0,0,0,75,0Z"/><line class="f" y2="139.54" transform="translate(74.997 5.222)"/></g></g></svg>