<svg xmlns="http://www.w3.org/2000/svg" xmlns:xlink="http://www.w3.org/1999/xlink" viewBox="-3188 -2874 150 150"><defs><style>.a{fill:rgba(255,255,255,0);stroke:#95989a;}.b{clip-path:url(#a);}.c{fill:#697db7;}.d{fill:#f15d61;}.e{fill:#fff;}</style><clipPath id="a"><rect class="a" width="150" height="150" transform="translate(629 311)"/></clipPath></defs><g class="b" transform="translate(-3817 -3185)"><g transform="translate(639.004 311)"><path class="c" d="M129.4,112.223l-64.35,37.128L.562,112.223V37.842L64.983.649,129.4,37.842Z"/><path class="d" d="M129.4,37.842,97.19,19.245l-32.207,18.6v.016l-32.207-18.6L.562,37.858V75.046L32.808,93.61l.011-.005v37.188l32.24,18.564,32.18-18.564V93.6l-.016-.005L129.4,75.03Z"/><path class="e" d="M65.047,150h.032l32.445-18.7.281-.162h0l31.9-18.386.281-.162V37.518l-.287-.162h0L100.5,20.489,64.983,0,.287,37.355l-.281.162H0V75.37H0v37.177L54.973,144.2l9.506,5.472.541.324ZM63.9,148.037l-30.52-17.575V94.589l31.126,18.2v35.582l-.589-.341ZM1.13,38.832,32.207,56.779l.032,35.863L1.13,74.727Zm.541-.979,31.1-17.942L63.852,37.853,32.77,55.8,1.687,37.853ZM95.93,93.7,65.053,111.823,33.986,93.653,64.918,75.808,95.925,93.7ZM65.8,75.014V38.978L96.568,56.731V92.766L65.8,75.014Zm-1.249-.292-31.185,18-.027-35.939L64.555,38.756V74.727Zm1.082,73.656V112.8L96.671,94.578v35.879L65.61,148.378Zm.476-110.525L97.19,19.894l31.083,17.958L97.179,55.79ZM97.785,56.725l31.05-17.915V74.7L97.785,92.615V56.731ZM96.065,19.24,64.977,37.2,33.884,19.251,64.983,1.3,96.06,19.24ZM1.13,76.025,32.24,93.94v35.884L1.13,111.9ZM97.8,129.808V93.918L128.851,76v35.9l-31.039,17.91Z"/></g></g></svg>