<svg xmlns="http://www.w3.org/2000/svg" xmlns:xlink="http://www.w3.org/1999/xlink" viewBox="-3188 -2084 150 150"><defs><style>.a{fill:rgba(255,255,255,0);stroke:#95989a;}.b{clip-path:url(#a);}.c{fill:#f15c61;}</style><clipPath id="a"><rect class="a" width="150" height="150" transform="translate(629 311)"/></clipPath></defs><g class="b" transform="translate(-3817 -2395)"><g transform="translate(629 311.005)"><path class="c" d="M120.241,90.477c-.8,0-1.6.043-2.38.1v27.276H90.58c-.065.784-.1,1.58-.1,2.38A29.753,29.753,0,1,0,120.23,90.483Z"/><path class="c" d="M120.241,0A29.753,29.753,0,0,0,90.488,29.753c0,.8.043,1.6.1,2.38h27.276V59.409c.784.065,1.58.1,2.38.1a29.753,29.753,0,0,0,0-59.507Z"/><path class="c" d="M32.144,32.144H59.42a21.681,21.681,0,0,0,.087-2.391A29.753,29.753,0,1,0,29.753,59.507c.8,0,1.6-.043,2.38-.1Z"/><path class="c" d="M32.144,117.856V90.58c-.784-.065-1.58-.1-2.38-.1A29.753,29.753,0,1,0,59.517,120.23c0-.8-.043-1.6-.1-2.38Z"/></g></g></svg>